<svg width="1227" height="421" viewBox="0 0 1227 421" fill="none" xmlns="http://www.w3.org/2000/svg">
<g clip-path="url(#clip0_229_83)">
<path d="M124.444 61.4609C125.369 60.894 126.522 60.8475 127.489 61.338L264.192 130.624C265.244 131.157 265.907 132.238 265.904 133.418L265.576 286.675C265.574 287.76 265.009 288.766 264.084 289.333L240.579 303.737C238.495 305.015 235.816 303.511 235.822 301.066L236.141 151.657C236.144 150.477 235.481 149.396 234.429 148.862L101.159 81.3166C98.9781 80.2112 98.8543 77.1423 100.939 75.8647L124.444 61.4609Z" fill="#3F11A1"/>
<path d="M79.7204 88.8677C80.6454 88.3008 81.7983 88.2543 82.766 88.7447L219.468 158.03C220.521 158.564 221.183 159.645 221.181 160.824L220.853 314.082C220.851 315.167 220.286 316.173 219.361 316.74L195.856 331.144C193.771 332.421 191.093 330.918 191.098 328.473L191.418 179.063C191.42 177.883 190.758 176.803 189.705 176.269L56.4356 108.723C54.2546 107.618 54.1308 104.549 56.2156 103.271L79.7204 88.8677Z" fill="#5A16EB"/>
<path d="M34.9972 116.274C35.9222 115.707 37.075 115.661 38.0427 116.151L174.745 185.437C175.798 185.97 176.46 187.051 176.457 188.231L176.13 341.489C176.127 342.574 175.563 343.58 174.638 344.147L151.133 358.55C149.048 359.828 146.37 358.324 146.375 355.879L146.694 206.47C146.697 205.29 146.035 204.209 144.982 203.676L11.7124 136.13C9.53141 135.024 9.40755 131.956 11.4924 130.678L34.9972 116.274Z" fill="#6D28D9"/>
<path d="M124.444 61.4604C125.369 60.8936 126.522 60.847 127.489 61.3375L264.192 130.623C265.244 131.157 265.907 132.237 265.904 133.417L265.576 286.675C265.574 287.76 265.009 288.766 264.084 289.333L240.579 303.737C238.495 305.014 235.816 303.511 235.822 301.065L236.141 151.656C236.144 150.476 235.481 149.395 234.429 148.862L101.159 81.3161C98.9781 80.2107 98.8543 77.1418 100.939 75.8642L124.444 61.4604Z" fill="#3F11A1"/>
<path d="M79.7204 88.8672C80.6454 88.3003 81.7983 88.2538 82.766 88.7443L219.468 158.03C220.521 158.563 221.183 159.644 221.181 160.824L220.853 314.082C220.851 315.167 220.286 316.173 219.361 316.74L195.856 331.143C193.771 332.421 191.093 330.917 191.098 328.472L191.418 179.063C191.42 177.883 190.758 176.802 189.705 176.269L56.4356 108.723C54.2546 107.617 54.1308 104.549 56.2156 103.271L79.7204 88.8672Z" fill="#5A16EB"/>
<path d="M34.9972 116.274C35.9222 115.707 37.075 115.66 38.0427 116.151L174.745 185.436C175.798 185.97 176.46 187.051 176.457 188.23L176.13 341.488C176.127 342.573 175.563 343.579 174.638 344.146L151.133 358.55C149.048 359.827 146.37 358.324 146.375 355.879L146.694 206.469C146.697 205.289 146.035 204.209 144.982 203.675L11.7124 136.129C9.53141 135.024 9.40755 131.955 11.4924 130.677L34.9972 116.274Z" fill="#6D28D9"/>
<path d="M124.444 61.4604C125.369 60.8936 126.522 60.847 127.489 61.3375L264.192 130.623C265.244 131.157 265.907 132.237 265.904 133.417L265.576 286.675C265.574 287.76 265.009 288.766 264.084 289.333L240.579 303.737C238.495 305.014 235.816 303.511 235.822 301.065L236.141 151.656C236.144 150.476 235.481 149.395 234.429 148.862L101.159 81.3161C98.9781 80.2107 98.8543 77.1418 100.939 75.8642L124.444 61.4604Z" fill="#3F11A1"/>
<path d="M79.7204 88.8672C80.6454 88.3003 81.7983 88.2538 82.766 88.7443L219.468 158.03C220.521 158.563 221.183 159.644 221.181 160.824L220.853 314.082C220.851 315.167 220.286 316.173 219.361 316.74L195.856 331.143C193.771 332.421 191.093 330.917 191.098 328.472L191.418 179.063C191.42 177.883 190.758 176.802 189.705 176.269L56.4356 108.723C54.2546 107.617 54.1308 104.549 56.2156 103.271L79.7204 88.8672Z" fill="#5A16EB"/>
<path d="M34.9972 116.274C35.9222 115.707 37.075 115.66 38.0427 116.151L174.745 185.436C175.798 185.97 176.46 187.051 176.457 188.23L176.13 341.488C176.127 342.573 175.563 343.579 174.638 344.146L151.133 358.55C149.048 359.827 146.37 358.324 146.375 355.879L146.694 206.469C146.697 205.289 146.035 204.209 144.982 203.675L11.7124 136.129C9.53141 135.024 9.40755 131.955 11.4924 130.677L34.9972 116.274Z" fill="#6D28D9"/>
<path fill-rule="evenodd" clip-rule="evenodd" d="M124.444 61.4605C125.369 60.8936 126.522 60.8471 127.489 61.3376L264.192 130.623C265.244 131.157 265.907 132.237 265.904 133.417L265.576 286.675C265.574 287.76 265.009 288.766 264.084 289.333L240.579 303.737C238.495 305.014 235.816 303.511 235.822 301.066L236.141 151.656C236.144 150.476 235.481 149.395 234.429 148.862L101.159 81.3162C98.978 80.2108 98.8542 77.1418 100.939 75.8643L124.444 61.4605ZM79.7203 88.8673C80.6453 88.3004 81.7982 88.2539 82.7659 88.7443L219.468 158.03C220.521 158.563 221.183 159.644 221.181 160.824L220.853 314.082C220.851 315.167 220.286 316.173 219.361 316.74L195.856 331.143C193.771 332.421 191.093 330.917 191.098 328.472L191.418 179.063C191.42 177.883 190.758 176.802 189.705 176.269L56.4355 108.723C54.2545 107.618 54.1307 104.549 56.2155 103.271L79.7203 88.8673ZM38.0426 116.151C37.0749 115.66 35.9221 115.707 34.9971 116.274L11.4923 130.678C9.40744 131.955 9.5313 135.024 11.7123 136.129L144.982 203.675C146.035 204.209 146.697 205.289 146.694 206.469L146.375 355.879C146.37 358.324 149.048 359.828 151.133 358.55L174.637 344.146C175.562 343.579 176.127 342.573 176.13 341.488L176.457 188.231C176.46 187.051 175.798 185.97 174.745 185.436L38.0426 116.151ZM46.0043 200.354C44.6653 199.675 43.0836 200.658 43.0999 202.16L43.7605 262.883C43.7763 264.34 44.5834 265.673 45.8671 266.363L99.3189 295.082C100.651 295.798 102.266 294.833 102.266 293.32L102.266 231.339C102.266 229.832 101.419 228.453 100.075 227.771L46.0043 200.354Z" fill="url(#paint0_linear_229_83)"/>
<path d="M43.1 202.159C43.0837 200.658 44.6654 199.675 46.0044 200.354L100.075 227.771C101.419 228.453 102.266 229.832 102.266 231.339L102.266 293.32C102.266 294.833 100.651 295.798 99.319 295.082L45.8672 266.363C44.5835 265.673 43.7764 264.34 43.7606 262.883L43.1 202.159Z" fill="#6D28D9"/>
<path d="M389.467 219.902L450.124 147.883H490.154L415.338 240.354L490.154 304.508H445.404L389.467 259.758V304.508H355.904V103.133H389.467V219.902ZM534.904 226.195C534.904 238.548 539.274 249.095 548.015 257.835C556.755 266.575 567.301 270.945 579.654 270.945C592.007 270.945 602.554 266.575 611.294 257.835C620.034 249.095 624.404 238.548 624.404 226.195V147.883H657.967V226.195C657.967 247.871 650.334 266.342 635.067 281.608C619.801 296.875 601.33 304.508 579.654 304.508C557.979 304.508 539.507 296.875 524.241 281.608C508.975 266.342 501.342 247.871 501.342 226.195V147.883H534.904V226.195ZM790.294 257.835C799.034 249.095 803.404 238.548 803.404 226.195C803.404 213.842 799.034 203.296 790.294 194.556C781.554 185.815 771.007 181.445 758.654 181.445C746.301 181.445 735.755 185.815 727.015 194.556C718.274 203.296 713.904 213.842 713.904 226.195C713.904 238.548 718.274 249.095 727.015 257.835C735.755 266.575 746.301 270.945 758.654 270.945C771.007 270.945 781.554 266.575 790.294 257.835ZM713.904 161.692C726.84 152.486 741.757 147.883 758.654 147.883C780.33 147.883 798.801 155.516 814.067 170.782C829.334 186.049 836.967 204.52 836.967 226.195C836.967 247.871 829.334 266.342 814.067 281.608C798.801 296.875 780.33 304.508 758.654 304.508C736.979 304.508 718.507 296.875 703.241 281.608C687.975 266.342 680.342 247.871 680.342 226.195V103.133H713.904V161.692ZM937.654 304.508C915.979 304.508 897.507 296.875 882.241 281.608C866.975 266.342 859.342 247.871 859.342 226.195C859.342 204.52 866.975 186.049 882.241 170.782C897.507 155.516 915.979 147.883 937.654 147.883C959.33 147.883 977.801 155.516 993.067 170.782C1008.33 186.049 1015.97 204.52 1015.97 226.195C1015.97 247.871 1008.33 266.342 993.067 281.608C977.801 296.875 959.33 304.508 937.654 304.508ZM937.654 270.945C950.007 270.945 960.554 266.575 969.294 257.835C978.034 249.095 982.404 238.548 982.404 226.195C982.404 213.842 978.034 203.296 969.294 194.556C960.554 185.815 950.007 181.445 937.654 181.445C925.301 181.445 914.755 185.815 906.015 194.556C897.274 203.296 892.904 213.842 892.904 226.195C892.904 238.548 897.274 249.095 906.015 257.835C914.755 266.575 925.301 270.945 937.654 270.945Z" fill="white"/>
<path d="M1076.44 235.644V251.394H1084.97C1090.84 251.394 1094.22 250.706 1095.09 249.331C1096.09 247.769 1096.59 246.081 1096.59 244.269C1096.59 238.519 1092.9 235.644 1085.53 235.644H1076.44ZM1077.84 266.956H1076.44V285.894H1058.25V220.269H1088.53C1099.25 220.269 1106.5 223.394 1110.28 229.644C1113.15 233.3 1114.59 237.737 1114.59 242.956V244.081C1114.59 254.706 1108.95 261.862 1097.67 265.55C1106.67 277.112 1112.75 283.894 1115.9 285.894H1093.87C1090.84 283.956 1085.5 277.644 1077.84 266.956ZM1148.52 260.862V285.894H1129.77V220.269H1148.52V245.3H1167.27V220.269H1186.02V285.894H1167.27V260.862H1148.52Z" fill="#3F11A1"/>
</g>
<defs>
<linearGradient id="paint0_linear_229_83" x1="418.186" y1="-39.8135" x2="71.2493" y2="188.629" gradientUnits="userSpaceOnUse">
<stop stop-color="#0905E6"/>
<stop offset="1" stop-color="#6D28D9"/>
</linearGradient>
<clipPath id="clip0_229_83">
<rect width="1226.56" height="420.015" fill="white"/>
</clipPath>
</defs>
</svg>
